<?xml version="1.0" encoding="UTF-8" standalone="no"?>
<!-- Created with Inkscape (http://www.inkscape.org/) -->

<svg
   width="213"
   height="330"
   viewBox="0 0 56.356249 87.312502"
   version="1.1"
   id="svg5"
   xmlns:xlink="http://www.w3.org/1999/xlink"
   xmlns="http://www.w3.org/2000/svg"
   xmlns:svg="http://www.w3.org/2000/svg">
  <defs
     id="defs2">
    <linearGradient
       id="linearGradient1848">
      <stop
         style="stop-color:#c09d57;stop-opacity:1"
         offset="0"
         id="stop1844" />
      <stop
         style="stop-color:#dcc699;stop-opacity:1"
         offset="1"
         id="stop1846" />
    </linearGradient>
    <clipPath
       clipPathUnits="userSpaceOnUse"
       id="clipPath838">
      <path
         d="M 182.67,183.886 H 683.025 V 366.973 H 182.67 Z"
         id="path836" />
    </clipPath>
    <clipPath
       clipPathUnits="userSpaceOnUse"
       id="clipPath856">
      <path
         d="M 182.67,183.886 H 683.025 V 366.973 H 182.67 Z"
         id="path854" />
    </clipPath>
    <clipPath
       clipPathUnits="userSpaceOnUse"
       id="clipPath990">
      <path
         d="M 182.67,183.886 H 683.025 V 366.973 H 182.67 Z"
         id="path988" />
    </clipPath>
    <clipPath
       clipPathUnits="userSpaceOnUse"
       id="clipPath1008">
      <path
         d="M 182.67,183.886 H 683.025 V 366.973 H 182.67 Z"
         id="path1006" />
    </clipPath>
    <linearGradient
       xlink:href="#linearGradient1848"
       id="linearGradient1850"
       x1="-18.115969"
       y1="2.4340964"
       x2="65.816767"
       y2="2.4340964"
       gradientUnits="userSpaceOnUse" />
  </defs>
  <g
     id="layer1">
    <path
       d="M 0,87.3125 H 52.223123 V 81.292397 H 0 Z"
       style="fill:#ffffff;fill-opacity:1;fill-rule:nonzero;stroke:none;stroke-width:0.433537"
       id="path996" />
    <g
       id="g998"
       transform="matrix(0.43353802,0,0,-0.43353802,26.151533,75.266781)"
       style="fill:#ffffff">
      <path
         d="M 0,0 13.571,13.57 6.625,20.516 -13.89,0 Z"
         style="fill:#ffffff;fill-opacity:1;fill-rule:nonzero;stroke:none"
         id="path1000" />
    </g>
    <circle
       style="fill:#ff0000;fill-opacity:1;stroke:none;stroke-width:0.0362504;stroke-linecap:round;stroke-linejoin:round"
       id="path1344"
       cx="42.363762"
       cy="16.846436"
       r="8.4639273" />
    <g
       id="g1010"
       transform="matrix(0.43353802,0,0,-0.43353802,28.120235,19.037899)"
       style="fill:#ffffff">
      <path
         d="m 0,0 h 32.42 c -0.517,4.421 -3.858,9.013 -7.912,10.635 l -35.607,14.24 c -4.072,1.629 -9.89,0.437 -12.994,-2.662 L -50.595,-4.261 c -18.093,-18.093 -18.093,-47.428 0,-65.521 l 34.409,-34.408 -25.508,-25.508 h 13.89 l 25.205,25.199 -9.259,9.26 4.633,4.633 26.066,-26.066 c 2.068,-2.068 6.115,-3.745 9.039,-3.746 l 36.982,-0.014 -37.061,37.077 0.008,22.491 c 0,2.925 -1.675,6.971 -3.743,9.039 l -34.655,34.649 c -1.809,1.809 -1.809,4.742 0,6.552 L 0,-0.028 Z m -9.233,-37.056 27.765,-27.765 v -9.266 l -24.953,24.953 c -1.551,1.551 -2.809,4.586 -2.81,6.779 z"
         style="fill:#ffffff;fill-opacity:1;fill-rule:nonzero;stroke:none"
         id="path1012" />
    </g>
    <path
       style="fill:none;stroke:#000000;stroke-width:0.15875;stroke-linecap:round;stroke-linejoin:miter;stroke-miterlimit:4;stroke-dasharray:none;stroke-opacity:1"
       d="m 21.802494,10.506846 c 0,0 -0.08068,2.690071 0.916132,5.058521 1.237475,2.940276 3.24296,5.578063 4.664488,4.231135"
       id="path1320" />
    <path
       style="opacity:1;fill:url(#linearGradient1850);fill-opacity:1;stroke-width:0.113386;stroke-linecap:round;stroke-linejoin:round"
       id="path1147"
       d="m 65.816767,38.778037 -83.932736,0 41.966368,-72.687881 z"
       transform="matrix(0.24799908,0,0,0.11033264,16.559179,6.296638)" />
  </g>
</svg>
