<?xml version="1.0" encoding="UTF-8" standalone="no"?>
<!-- Created with Inkscape (http://www.inkscape.org/) -->

<svg
   width="100"
   height="38"
   viewBox="0 0 26.458333 10.054167"
   version="1.1"
   id="svg5"
   xmlns:xlink="http://www.w3.org/1999/xlink"
   xmlns="http://www.w3.org/2000/svg"
   xmlns:svg="http://www.w3.org/2000/svg">
  <defs
     id="defs2">
    <linearGradient
       id="linearGradient1710">
      <stop
         style="stop-color:#000000;stop-opacity:1"
         offset="0"
         id="stop1706" />
      <stop
         style="stop-color:#593e92;stop-opacity:1"
         offset="1"
         id="stop1708" />
    </linearGradient>
    <linearGradient
       xlink:href="#linearGradient1710"
       id="linearGradient1712"
       x1="7.6193118"
       y1="-0.037076943"
       x2="7.6193118"
       y2="5.9508495"
       gradientUnits="userSpaceOnUse"
       gradientTransform="scale(1.6666665)" />
  </defs>
  <g
     id="layer1">
    <g
       id="g1056">
      <rect
         style="fill:#ffffff;stroke-width:0.325791;stroke-linecap:round;stroke-linejoin:round"
         id="rect1030"
         width="13.717468"
         height="8.2563391"
         x="9.9152641"
         y="0.87407696" />
      <circle
         style="fill:#ffffff;stroke-width:0.0444098;stroke-linecap:round;stroke-linejoin:round"
         id="path958"
         cx="5.0424643"
         cy="4.9765081"
         r="4.8369913" />
      <path
         style="fill:url(#linearGradient1712);fill-opacity:1;stroke-width:0.0179028"
         d="M 4.5559119,9.9176635 C 3.5801986,9.837404 2.6255077,9.4553849 1.8452595,8.8329901 1.6356181,8.6657621 1.2536833,8.281072 1.081145,8.0633677 0.69029656,7.5701969 0.36536261,6.9459188 0.19794493,6.3665224 -0.19041433,5.0224897 -0.00177147,3.5722968 0.71504348,2.3913358 1.4401636,1.1966907 2.6225127,0.36527613 3.9871411,0.09043382 4.4614231,-0.00509 3.9376683,3.0666664e-5 13.23141,5.4333328e-5 20.91012,7.2833326e-5 21.859828,0.00308767 22.075563,0.028006 c 1.591495,0.18392265 2.987438,1.1232992 3.775716,2.5408034 0.275963,0.4962421 0.471193,1.0798056 0.5661,1.6921172 0.04567,0.2946344 0.05503,0.9198687 0.0185,1.2353017 -0.112683,0.9729369 -0.458968,1.8163575 -1.05398,2.5671386 C 25.209582,8.2807947 24.827748,8.6654531 24.617786,8.833129 23.831194,9.4613036 22.897304,9.8312719 21.878631,9.9182667 21.635321,9.9390493 4.8087307,9.9384698 4.5559119,9.9177398 Z M 5.6675341,9.5430409 C 6.1445951,9.4670062 6.5462485,9.3391862 6.9923515,9.1214346 8.492154,8.3893527 9.4753952,6.9140388 9.576548,5.2439581 9.6283257,4.3890609 9.4529347,3.5662121 9.0582801,2.8125021 8.617029,1.9698006 7.8858585,1.2491215 7.0439946,0.82712008 5.8861577,0.24673064 4.5502697,0.17134932 3.3376498,0.6179791 2.904891,0.77737076 2.3659061,1.0890634 2.0063871,1.3878385 1.1031366,2.1384826 0.53631781,3.1594172 0.35659648,4.3593936 c -0.036803,0.2457148 -0.03188,1.0011765 0.008218,1.2621558 0.16140149,1.0504096 0.63463766,1.9664985 1.38955422,2.6898853 0.7110174,0.6813264 1.6729942,1.1401439 2.6152022,1.2473287 0.09354,0.010633 0.1942455,0.022732 0.2237865,0.026857 0.14826,0.02073 0.8520366,-0.00717 1.0741741,-0.04258 z M 4.5637324,7.3914476 C 3.278173,7.2440644 2.3895626,6.0186352 2.6506761,4.753258 2.8303501,3.8825486 3.5021068,3.2187782 4.3916261,3.033009 4.612399,2.9869007 5.2662206,2.9924974 5.2642188,3.0404924 5.2639553,3.047109 5.2028055,3.0968024 5.1283622,3.150959 4.957486,3.2752657 4.7254075,3.515409 4.6146905,3.6824816 3.9671063,4.6596884 4.2722876,5.9803516 5.2819458,6.5700235 5.5206619,6.7094418 5.7980908,6.8004082 6.0953882,6.836745 6.1830102,6.847462 6.2576332,6.859162 6.2612199,6.862743 6.2700399,6.871593 6.0740179,7.0096863 5.9208241,7.1025523 5.6682111,7.2556806 5.3358571,7.362586 5.0140787,7.3942156 4.8178682,7.4134976 4.7524884,7.4131026 4.5637324,7.3914456 Z M 5.300524,7.1734666 C 5.4938053,7.1231931 5.7917454,6.9997035 5.7816624,6.9740451 5.7779748,6.9646416 5.6968986,6.9307756 5.6014984,6.8987693 5.2606706,6.7844198 5.0211222,6.6341998 4.7522145,6.3661879 4.3050052,5.9204694 4.0810924,5.3516223 4.1067534,4.7264039 4.1291691,4.1804177 4.3299392,3.7014945 4.7090609,3.2896948 L 4.8203175,3.1688498 H 4.7136592 c -0.2483858,0 -0.6032926,0.096983 -0.8632708,0.2359032 C 3.40397,3.6432925 3.0427599,4.0677146 2.8854885,4.5385012 2.6301594,5.302837 2.8334369,6.1297237 3.410081,6.6723988 3.5883405,6.8401563 3.7172825,6.9278018 3.9465239,7.037028 4.2660449,7.1892679 4.4871182,7.2340603 4.8708548,7.2243038 5.0732975,7.2191371 5.1678888,7.2079704 5.300524,7.1734666 Z M 5.7334513,4.5875972 C 5.6909329,4.4620839 5.6480346,4.3381474 5.6381246,4.3121782 5.6223246,4.2707816 5.5858579,4.2533749 5.342355,4.1709932 5.1598968,4.1092649 5.0728283,4.0719033 5.0885747,4.0620933 5.1017413,4.0538766 5.2269546,4.0089649 5.366791,3.9622783 l 0.2542493,-0.084885 0.06478,-0.1886692 c 0.1119416,-0.3260376 0.12415,-0.3587473 0.1338883,-0.3587473 0.00522,0 0.022653,0.038267 0.038745,0.085038 0.0161,0.04677 0.058827,0.1701386 0.094978,0.2741521 l 0.065733,0.1891116 0.2541675,0.084753 c 0.1397917,0.046612 0.2650093,0.091455 0.2782638,0.099647 0.015833,0.00977 -0.071017,0.046597 -0.2528373,0.107195 C 6.078718,4.2432105 6.0183665,4.2703202 6.005004,4.3018318 5.995754,4.3236418 5.952291,4.4482135 5.908424,4.5786495 5.864554,4.7090878 5.824632,4.8158063 5.819709,4.8158063 5.814779,4.8158036 5.775971,4.7131096 5.7334513,4.5875972 Z M 5.8740229,4.3114327 c 0.04813,-0.1400966 0.030565,-0.126205 0.2729878,-0.2159209 0.027395,-0.010133 0.044865,-0.023363 0.038823,-0.029417 -0.00603,-0.00603 -0.068163,-0.03114 -0.1380499,-0.055777 l -0.1270667,-0.04479 -0.043045,-0.129795 c -0.02368,-0.071388 -0.049757,-0.1297949 -0.057962,-0.1297949 -0.0082,0 -0.034288,0.058408 -0.057962,0.1297949 l -0.043043,0.129795 -0.1270667,0.04479 c -0.069887,0.024628 -0.131945,0.049668 -0.137905,0.055632 -0.00595,0.00595 0.039705,0.028432 0.1014817,0.049933 0.1606383,0.055913 0.1581716,0.053598 0.2078266,0.1951463 0.024865,0.070912 0.050087,0.1289284 0.056028,0.1289284 0.00595,0 0.030672,-0.057837 0.054955,-0.1285267 z M 6.6689083,3.4163427 6.598487,3.2156727 6.40603,3.1525897 C 6.3001784,3.1178947 6.213573,3.0847764 6.213573,3.0789914 c 0,-0.00577 0.085328,-0.038092 0.1896175,-0.071797 0.2137743,-0.069093 0.1999008,-0.054122 0.2852177,-0.3077941 0.028885,-0.08588 0.057733,-0.1503334 0.06411,-0.1432234 0.00637,0.00712 0.037227,0.090872 0.068558,0.1861432 0.031332,0.095268 0.066573,0.1808856 0.078313,0.1902601 0.01175,0.00938 0.1039267,0.043918 0.2048528,0.076757 0.1009283,0.032838 0.1835065,0.06434 0.1835065,0.069997 0,0.00567 -0.082577,0.037158 -0.1835065,0.069997 -0.1009266,0.032842 -0.1931103,0.067382 -0.2048528,0.076757 -0.01175,0.00938 -0.046982,0.094995 -0.078313,0.1902628 -0.031332,0.095272 -0.062543,0.1793921 -0.069357,0.1869386 -0.00682,0.00757 -0.04408,-0.076577 -0.082812,-0.1869459 z M 6.787865,3.24367 C 6.8144,3.1649884 6.82246,3.1576234 6.9205316,3.1224484 7.0318,3.08254 7.03181,3.0785817 6.9207345,3.0435484 6.8235928,3.0129084 6.8123112,3.001575 6.7862395,2.908455 6.7738062,2.86408 6.7580545,2.8243134 6.7512178,2.8200884 c -0.00685,-0.00423 -0.026183,0.03595 -0.042998,0.089282 -0.02981,0.094568 -0.032978,0.097723 -0.1283333,0.1277834 -0.053775,0.016963 -0.09777,0.035932 -0.09777,0.042182 0,0.00625 0.043997,0.025235 0.09777,0.042185 0.095463,0.030092 0.098495,0.03312 0.12852,0.1283733 0.01691,0.053653 0.035353,0.093053 0.040978,0.087553 0.00562,-0.0055 0.022943,-0.0477 0.038478,-0.093775 z m 10.237933,1.1226174 c 0.10925,-0.041947 0.25145,-0.1118917 0.316007,-0.1553983 l 0.117367,-0.079097 V 3.6065165 3.0812394 l -0.28967,-0.010167 -0.289675,-0.010167 v 0.3894427 0.3894376 l -0.121767,0.050883 c -0.140067,0.058531 -0.438362,0.066593 -0.612759,0.016567 -0.597072,-0.1712333 -0.773606,-1.0209548 -0.298723,-1.4379062 0.161311,-0.1416302 0.463485,-0.2279112 0.69203,-0.1975938 0.18799,0.02494 0.404649,0.11986 0.479542,0.2101065 0.06725,0.081028 0.09312,0.071667 0.30314,-0.1096517 l 0.190983,-0.1649 -0.109516,-0.11299 c -0.06024,-0.062146 -0.203352,-0.1551048 -0.31804,-0.2065736 -0.778333,-0.3492977 -1.698208,-0.057864 -2.023348,0.6410259 -0.08258,0.1774978 -0.09379,0.245219 -0.09442,0.5700968 -6.72e-4,0.3311601 0.0093,0.3901091 0.09768,0.5793439 0.163063,0.3491378 0.449403,0.5990936 0.832069,0.7263526 0.269329,0.089563 0.847396,0.070003 1.129098,-0.038175 z M 16.507314,8.1379209 C 16.788823,8.0061855 16.965837,7.8567664 17.111435,7.6279764 17.368022,7.2247848 17.401092,6.7002785 17.19704,6.2708257 16.780645,5.394505 15.503676,5.179036 14.773628,5.8619069 c -0.623524,0.5832346 -0.54544,1.6568743 0.155623,2.1397115 0.299323,0.2061484 0.55038,0.2722599 0.979464,0.2579001 0.315456,-0.010548 0.39648,-0.026975 0.598606,-0.1215985 z m -0.97288,-0.45774 c -0.269592,-0.2246593 -0.52683,-0.4111911 -0.529369,-0.7837418 -0.0021,-0.3062338 0.05749,-0.4688176 0.237997,-0.6493072 0.257428,-0.2574322 0.671621,-0.3178357 1.00539,-0.1466233 0.474151,0.2432234 0.584576,0.9729122 0.207316,1.3699727 -0.06382,0.067168 -0.181149,0.1523359 -0.260728,0.1892624 -0.165018,0.076562 -0.512241,0.144075 -0.6606,0.020443 z M 11.437507,3.6407666 V 2.8484914 l 0.33988,0.4148281 c 0.186935,0.2281565 0.481518,0.5853246 0.654628,0.7937116 l 0.314748,0.3788885 0.249501,-0.010233 0.249501,-0.010233 V 3.0987727 1.7820832 h -0.298448 -0.29845 l -0.01756,0.785849 -0.01756,0.785854 -0.596898,-0.7282433 C 11.688543,2.2250093 11.39557,1.8666295 11.365783,1.8291403 c -0.04598,-0.05789 -0.09095,-0.066569 -0.29845,-0.057606 l -0.244294,0.010533 -0.0092,1.3254663 -0.0092,1.3254719 h 0.316424 0.316432 z m 3.046369,-0.5331857 -0.0092,-1.3254719 h -0.29845 -0.29845 l -0.0092,1.3254719 -0.0092,1.3254663 h 0.316846 0.31685 z m 4.151542,0.7812355 V 3.3445857 h 0.5969 0.596898 v 0.5442307 0.5442308 h 0.316429 0.316425 L 20.45287,3.1075809 20.44367,1.782109 H 20.145167 19.84672 l -0.0097,0.5178999 -0.0097,0.5179 H 19.2314 18.635438 V 2.2912318 1.764555 h -0.29364 -0.293638 l -0.02475,0.3370131 c -0.0257,0.3498605 -0.02217,2.2588405 0.0042,2.3051431 0.0083,0.014483 0.148383,0.026347 0.311398,0.026347 h 0.296376 z M 22.251924,3.3621397 V 2.2912318 h 0.42288 0.422882 l -0.0105,-0.2545578 -0.0105,-0.2545643 -1.149908,-0.00925 -1.149912,-0.00925 v 0.2638204 0.263818 h 0.42134 0.421342 v 1.0709076 1.0709075 h 0.31602 0.316018 z m -10.841772,4.0956782 0.0098,-0.7771046 0.379842,0.6311578 0.379839,0.6311576 0.149256,0.00106 0.149257,0.00106 0.393384,-0.6588451 0.39338,-0.6588455 0.0098,0.8035468 0.0098,0.8035469 h 0.288716 0.288715 V 6.8583465 5.4820985 l -0.259483,0.01065 -0.259483,0.01065 -0.481483,0.8137341 c -0.264805,0.4475385 -0.495608,0.8184281 -0.512871,0.8241818 -0.01717,0.00576 -0.256115,-0.3651576 -0.53075,-0.8242511 l -0.499356,-0.8347097 -0.256687,0.010467 -0.256688,0.01055 -0.0094,1.3656137 -0.0094,1.365614 h 0.307248 0.307204 l 0.0098,-0.7771057 z m 8.029833,0.7363988 C 19.70681,8.1375575 20.02377,7.9702632 20.191243,7.7976886 20.697196,7.2763436 20.658855,6.356746 20.110618,5.8638284 19.784858,5.5709443 19.412896,5.4874511 18.428861,5.486323 L 17.80484,5.4857906 V 6.8604523 8.235109 h 0.721726 c 0.397017,0 0.80797,-0.01832 0.913424,-0.040717 z M 18.455986,6.878726 V 6.0282352 h 0.355189 c 0.475655,0 0.678598,0.062683 0.867931,0.2680808 0.172327,0.186966 0.239815,0.3957938 0.212875,0.6588131 -0.05295,0.5168475 -0.341363,0.7273133 -1.037478,0.7570608 l -0.39852,0.017042 z m 4.66661,1.1037227 V 7.7299671 L 22.390049,7.7201671 21.6575,7.7103671 21.647,7.4119194 21.6365,7.113472 h 0.634533 0.634525 V 6.861098 6.6087275 l -0.624024,-0.0099 -0.624021,-0.0099 -0.0105,-0.2803595 -0.0105,-0.2803561 h 0.72661 0.726613 l -0.01083,-0.262275 -0.01083,-0.2622681 -1.021951,-0.00963 -1.02195,-0.00963 v 1.375226 1.3752206 h 1.049078 1.049083 z"
         id="path836" />
    </g>
  </g>
</svg>
